<?xml version="1.0" encoding="utf-8"?>
<!-- Generator: Adobe Illustrator 19.2.1, SVG Export Plug-In . SVG Version: 6.00 Build 0)  -->
<svg version="1.1" id="Layer_1" xmlns="http://www.w3.org/2000/svg" xmlns:xlink="http://www.w3.org/1999/xlink" x="0px" y="0px"
	 viewBox="0 0 801.1 803.9" style="enable-background:new 0 0 801.1 803.9;" xml:space="preserve">
<style type="text/css">
	.st0{fill:#00447A;}
	.st1{fill:#FFFFFF;}
</style>
<circle class="st0" cx="401.8" cy="404.1" r="390"/>
<g>
	<path class="st1" d="M401.8,36.2c-202.9,0-367.9,165-367.9,367.9C33.9,607,198.9,772,401.8,772c202.8,0,367.8-165,367.8-367.9
		C769.6,201.3,604.6,36.2,401.8,36.2 M336.6,69.7V378c0,7.4,0,18.9,0.5,26.3h-0.9c-2.3-7.7-2.3-6.2-7.8-17.7L266,278.4h-34.4v167.4
		h30.9V345.4c0-7.9-0.1-8.2-0.4-13.9l0.1-4.8h0.7c2,4.8,3.7,8.1,9.2,17l60,102h35.1V65.1c11.4-1.1,22.9-1.7,34.6-1.7
		c188.1,0,340.7,152.6,340.7,340.8c0,24.7-2.7,48.8-7.7,72h-666c-5-23.2-7.7-47.3-7.7-72C61.1,238.3,179.6,100.2,336.6,69.7
		 M728.1,502c-11,36.6-27.9,70.6-49.8,100.9V502H728.1z M364.7,502l-68.1,226.2c-11.7-3.8-23.1-8.2-34.2-13.2V502H364.7z M75.4,502
		h156.1v197.2C157.2,656.2,100.6,585.9,75.4,502 M330,737.2L396.3,502h104l66.3,200.3c-48.8,27-105,42.5-164.8,42.5
		C377.1,744.8,353.1,742.2,330,737.2 M596.2,683.9L532.9,502h115.3v137.3C632.4,655.8,615,670.7,596.2,683.9"/>
	<path class="st1" d="M178.8,405.5c0,14.4-14.7,19.1-27.7,19.1c-12.9,0-23.8-3.9-32.5-8.8l-13.2,22.9c11,6.7,26.4,12.6,46.9,12.6
		c33.1,0,57.1-17.5,57.1-47.8c0-53.6-70.6-54.1-70.6-84.2c0-10,11.3-17.1,24.8-17.1c13.7,0,25.6,3.2,38.5,10.5l0.5-28.3
		c-9.1-5.2-23.4-9.7-41.2-9.7c-35.1,0-54.7,21.7-54.7,47.3c0,13.3,4.3,23.2,10.9,30.8C138.1,376.5,178.8,380.9,178.8,405.5"/>
	<path class="st1" d="M439.3,349.6l5.1-17.3l0.1,0.9c1.3,5.7,2.1,7.7,5.2,16.2l31.9,96.4h31.7L455,278.4h-23l-50.4,167.4h30.5
		L439.3,349.6z"/>
	<path class="st1" d="M557.2,345.8c0-5.1,0-10.5-0.5-17.4h0.5c3.3,7.2,5.7,12.7,9,17.4l30.4,54.2H612l27.4-53.4
		c2.9-4.1,6.7-12.8,9-18.1h0.2c-0.5,6.7-0.5,11.9-0.5,18.1v99.2h30.2V278.3H650l-36.1,65.2c-4.5,8-6.3,12.6-9,17.9h-0.6
		c-3.1-5.4-5.9-10.8-10.4-17.9l-38.7-65.2h-28.7v167.4h30.7V345.8z"/>
</g>
</svg>
